<svg width="117" height="406" viewBox="0 0 117 406" fill="none" xmlns="http://www.w3.org/2000/svg">
<path d="M-132.994 377.879C-138.993 368.505 -142.268 358.028 -145.426 347.843C-147.365 341.641 -149.362 335.237 -151.952 329.094C-159.872 310.268 -170.595 292.75 -183.759 277.134L-185.99 274.501C-195.517 263.325 -206.28 250.682 -204.626 235.922C-203.345 224.714 -195.169 214.673 -179.616 205.229C-169.451 199.056 -162.037 193.61 -156.286 188.089C-148.672 180.842 -144.273 173.467 -143.047 166.2C-141.661 157.774 -144.623 149.139 -151.858 140.543C-154.91 136.904 -158.436 133.474 -161.836 130.165C-168.173 123.974 -174.741 117.588 -178.572 109.58C-178.903 108.877 -179.217 108.164 -179.504 107.457C-182.119 100.73 -182.829 93.4127 -181.558 86.3083C-180.333 79.1329 -177.628 72.2909 -173.615 66.2178C-165.143 53.2801 -152.179 44.1879 -141.817 37.7461C-127.647 28.8174 -112.817 20.9812 -97.4561 14.3054C-79.7496 6.72483 -63.6138 2.14411 -49.4164 0.656228C-36.0606 -0.759311 -22.5623 1.16384 -10.1332 6.25303C2.91193 11.7951 12.8983 20.5533 18.6272 31.6564C24.161 42.362 25.5592 54.5271 26.9204 66.3003C27.482 71.1293 28.0656 76.1222 28.9217 80.9289C31.2974 94.1357 35.9273 106.835 42.6089 118.473C49.2492 130.138 57.7567 140.635 67.793 149.548C72.8566 153.9 78.1472 157.981 83.6426 161.773C98.4764 172.391 112.483 182.423 116.071 204.074C118.063 216.204 115.022 229.037 107.245 241.114C100.411 251.733 90.0765 261.482 78.1517 268.58C65.6127 276.035 51.7442 281.301 38.3255 286.399C27.5135 290.505 16.3497 294.729 5.89916 300.123C-5.77536 306.147 -21.7323 316.739 -31.4543 333.03C-35.8813 340.434 -38.2739 348.828 -40.5868 356.957C-42.5492 363.852 -44.5801 370.993 -47.8608 377.628C-51.7588 385.525 -58.8604 396.078 -70.5494 401.54C-79.9128 405.907 -90.7892 406.183 -101.948 402.402C-112.441 398.744 -121.724 392.268 -128.78 383.684C-130.299 381.835 -131.706 379.897 -132.994 377.879ZM-167.146 297.822C-160.887 307.625 -155.474 317.944 -150.968 328.666C-148.354 334.865 -146.349 341.299 -144.407 347.524C-140.389 360.387 -136.629 372.477 -127.947 383.02C-121.013 391.441 -111.895 397.793 -101.593 401.379C-90.6854 405.084 -80.1142 404.813 -71.0137 400.555C-59.6326 395.242 -52.6877 384.909 -48.8675 377.168C-45.6356 370.624 -43.6169 363.538 -41.6635 356.684C-39.3302 348.494 -36.897 340.015 -32.4236 332.498C-22.5587 315.986 -6.4219 305.266 5.37594 299.176C15.8571 293.774 27.0714 289.517 37.9226 285.398C51.2938 280.319 65.1363 275.105 77.6062 267.635C89.3879 260.628 99.5874 251.002 106.338 240.531C113.969 228.69 116.96 216.15 114.994 204.265C111.47 183.048 97.6355 173.155 82.9907 162.665C77.4681 158.855 72.1501 154.756 67.0589 150.386C56.9406 141.403 48.3659 130.819 41.677 119.057C34.9152 107.304 30.2328 94.4712 27.8362 81.125C26.967 76.2792 26.3864 71.2724 25.8278 66.4297C24.4622 54.7424 23.0512 42.6686 17.6468 32.1652C12.0412 21.2918 2.28225 12.6849 -10.5601 7.27421C-22.8317 2.24978 -36.159 0.351728 -49.3453 1.75051C-63.4315 3.22659 -79.4922 7.79484 -97.07 15.3168C-112.37 21.9637 -127.141 29.7696 -141.252 38.6665C-151.511 45.0658 -164.369 54.0435 -172.716 66.806C-176.644 72.7501 -179.293 79.4466 -180.493 86.4697C-181.728 93.3731 -181.042 100.483 -178.511 107.023C-178.227 107.708 -177.923 108.404 -177.6 109.076C-173.846 116.908 -167.357 123.226 -161.058 129.358C-157.642 132.692 -154.106 136.14 -151.004 139.818C-143.557 148.67 -140.509 157.607 -141.954 166.368C-143.184 173.851 -147.75 181.428 -155.518 188.88C-161.331 194.453 -168.804 199.936 -179.037 206.153C-194.281 215.41 -202.292 225.192 -203.505 236.06C-204.179 242.427 -202.611 248.939 -198.557 255.997C-194.992 262.216 -190.031 268.112 -185.221 273.772L-182.977 276.408C-177.237 283.192 -171.949 290.345 -167.146 297.822Z" fill="white" fill-opacity="0.57"/>
</svg>
