<?xml version="1.0" standalone="no"?>
<!DOCTYPE svg PUBLIC "-//W3C//DTD SVG 20010904//EN"
 "http://www.w3.org/TR/2001/REC-SVG-20010904/DTD/svg10.dtd">
<svg version="1.0" xmlns="http://www.w3.org/2000/svg"
 width="920.000000pt" height="908.000000pt" viewBox="0 0 920.000000 908.000000"
 preserveAspectRatio="xMidYMid meet">

<g transform="translate(0.000000,908.000000) scale(0.100000,-0.100000)"
fill="#fff" stroke="none">
<path fill="#000" d="M4240 9069 c-839 -63 -1688 -375 -2363 -867 -639 -466 -1156 -1095
-1473 -1793 -177 -391 -314 -856 -359 -1224 -4 -27 -8 -57 -10 -65 -2 -8 -7
-53 -11 -100 -3 -47 -8 -89 -11 -93 -3 -5 -7 -142 -10 -305 -6 -394 14 -621
87 -984 114 -569 359 -1150 688 -1628 169 -247 338 -448 566 -675 262 -260
550 -485 866 -676 158 -95 506 -268 671 -333 446 -175 914 -280 1408 -317 231
-17 683 -4 891 25 19 3 53 8 75 11 122 16 347 61 487 96 310 78 575 175 873
318 497 241 880 513 1270 905 275 276 484 544 679 870 330 548 544 1183 612
1816 24 223 31 654 14 830 -6 58 -13 130 -15 160 -3 30 -8 69 -10 85 -3 17 -7
48 -10 70 -3 22 -10 67 -16 100 -136 794 -479 1529 -1008 2160 -184 219 -509
524 -766 717 -679 510 -1517 822 -2405 896 -129 11 -578 11 -720 1z m630
-1149 c687 -60 1281 -283 1818 -682 497 -370 903 -898 1125 -1463 119 -303
171 -511 222 -880 19 -137 26 -390 16 -538 -16 -225 -19 -253 -47 -416 -98
-570 -337 -1095 -703 -1546 -98 -120 -133 -159 -270 -294 -492 -485 -1143
-819 -1826 -936 -229 -39 -343 -48 -605 -48 -262 0 -374 9 -605 48 -583 100
-1142 357 -1614 742 -58 48 -169 151 -246 228 -505 507 -832 1143 -944 1835
-62 384 -62 719 0 1100 223 1371 1284 2481 2659 2779 324 71 714 98 1020 71z"/>
<path d="M4315 7711 c-64 -9 -91 -24 -111 -63 -15 -28 -15 -46 -5 -152 30
-308 54 -570 71 -766 6 -69 15 -168 20 -220 5 -52 12 -126 15 -165 3 -38 7
-88 10 -110 5 -43 16 -164 40 -450 23 -273 43 -408 70 -472 15 -35 35 -40 103
-27 36 7 44 25 64 149 16 97 15 846 -2 1413 -5 202 -10 453 -10 557 -1 209 -7
249 -46 285 -21 21 -36 25 -97 26 -40 1 -94 -1 -122 -5z"/>
<path d="M5383 7588 c-201 -211 -501 -835 -612 -1273 -66 -257 -42 -559 60
-763 50 -100 101 -159 165 -194 99 -54 267 -61 409 -18 130 40 459 216 630
338 215 153 461 361 614 520 93 97 272 300 333 379 l48 61 -148 143 c-231 226
-418 376 -649 522 -218 137 -507 262 -697 302 -105 21 -118 20 -153 -17z
m-151 -479 c-66 -156 -169 -528 -188 -684 -3 -22 -7 -46 -10 -54 -17 -52 -25
-358 -12 -486 14 -141 78 -324 144 -410 31 -41 25 -42 -51 -14 -112 42 -204
158 -240 303 -16 68 -22 262 -9 346 37 249 124 514 272 830 19 41 50 108 69
149 36 78 57 95 25 20z"/>
<path d="M3130 7433 c-162 -66 -357 -186 -532 -326 -238 -192 -530 -517 -727
-810 -50 -74 -52 -79 -34 -92 102 -76 193 -132 468 -287 339 -191 632 -341
830 -425 176 -75 403 -163 460 -179 68 -20 267 -20 322 -1 113 39 179 104 210
206 24 79 23 352 -1 471 -41 196 -79 305 -181 515 -169 346 -358 620 -583 843
-128 127 -128 127 -232 85z m431 -498 c258 -368 400 -614 482 -836 125 -335
91 -573 -96 -663 -47 -23 -137 -49 -137 -40 0 2 17 12 38 23 155 79 189 305
96 636 -28 97 -95 283 -139 380 -49 110 -195 396 -242 473 -69 116 -70 124 -2
27z"/>
<path d="M7315 5691 c-168 -65 -445 -169 -1020 -386 -214 -81 -424 -161 -465
-178 -130 -53 -328 -158 -371 -196 l-41 -36 19 -50 19 -50 50 -3 c61 -4 234
40 654 167 284 86 471 141 910 271 407 121 528 158 548 169 27 14 52 61 52 95
0 44 -67 209 -95 234 -41 35 -91 28 -260 -37z m-1070 -556 c-1 -16 3 -25 12
-25 35 0 -5 -21 -90 -48 -119 -38 -161 -47 -153 -34 3 6 2 13 -4 17 -18 11
-11 25 18 37 52 21 207 77 214 78 3 0 5 -11 3 -25z"/>
<path d="M1395 5307 c-35 -35 -51 -88 -62 -204 -5 -52 -3 -66 15 -91 30 -41
54 -48 247 -72 94 -12 179 -23 190 -25 11 -2 40 -7 65 -9 59 -7 485 -63 575
-76 39 -5 93 -12 120 -15 28 -3 59 -8 70 -10 11 -2 97 -13 190 -25 94 -11 177
-23 185 -25 8 -2 42 -6 75 -10 33 -3 69 -8 80 -11 66 -14 265 -34 351 -34 124
0 135 6 137 80 l2 53 -45 24 c-102 53 -326 117 -620 177 -262 54 -363 75 -490
101 -514 108 -995 205 -1021 205 -22 0 -41 -10 -64 -33z"/>
<path d="M4935 5292 c-59 -28 -121 -102 -135 -163 -58 -239 218 -406 399 -243
63 57 85 110 79 198 -5 83 -43 148 -112 191 -63 39 -168 46 -231 17z m178 -38
c40 -21 49 -34 34 -53 -10 -12 -9 -13 3 -6 9 5 7 -1 -5 -15 -11 -13 -14 -20
-8 -16 9 5 11 2 7 -8 -3 -9 -10 -16 -16 -16 -5 0 -8 -3 -6 -7 2 -5 -10 -21
-26 -38 -16 -16 -26 -23 -22 -15 4 8 0 6 -8 -4 -9 -11 -16 -16 -16 -12 0 5 -8
2 -17 -5 -14 -12 -16 -12 -8 0 6 10 4 12 -6 6 -21 -13 -55 -11 -75 6 -16 12
-17 12 -10 -1 4 -9 2 -8 -7 2 -8 10 -17 15 -20 11 -4 -3 -7 -1 -7 6 0 7 -5 9
-10 6 -6 -4 -9 -1 -8 7 2 7 -3 12 -10 10 -16 -3 -7 40 17 83 37 66 151 96 224
59z"/>
<path d="M3985 5251 c-90 -41 -145 -126 -145 -226 0 -103 48 -176 145 -221
191 -90 394 93 333 300 -16 55 -101 140 -154 155 -58 16 -134 13 -179 -8z
m162 -32 c44 -16 65 -39 52 -56 -6 -7 -8 -13 -4 -13 4 0 1 -8 -6 -17 -12 -15
-12 -16 1 -8 9 5 7 -1 -5 -15 -11 -13 -14 -20 -6 -15 10 5 12 4 7 -3 -4 -7
-15 -12 -24 -12 -12 0 -14 -2 -4 -8 9 -6 5 -12 -15 -23 -16 -8 -31 -18 -35
-24 -4 -5 -8 -6 -8 -1 0 5 -8 2 -17 -5 -15 -12 -16 -12 -8 1 6 12 5 12 -5 3
-8 -7 -22 -8 -41 -3 -22 7 -28 6 -22 -3 5 -9 2 -8 -9 0 -8 7 -17 10 -20 7 -3
-2 -17 9 -31 25 -17 21 -27 27 -31 18 -4 -6 -4 5 -2 26 12 100 132 165 233
126z"/>
<path d="M4531 4879 c-128 -25 -248 -118 -304 -237 -30 -62 -32 -75 -32 -172
0 -97 2 -110 32 -172 45 -95 110 -161 202 -206 72 -35 81 -36 176 -37 92 0
106 3 168 32 89 42 166 116 208 201 32 64 34 72 34 177 0 103 -2 114 -32 178
-57 120 -169 208 -301 236 -60 12 -88 13 -151 0z m202 -89 c24 -12 55 -33 68
-47 13 -14 19 -24 14 -20 -6 3 -17 2 -25 -4 -12 -7 -11 -9 5 -10 l20 0 -20 -9
-20 -9 20 0 c16 -1 17 -3 5 -10 -8 -6 -18 -7 -24 -4 -5 3 -6 1 -2 -6 4 -6 11
-9 16 -6 4 3 7 -3 5 -12 -2 -10 -4 -21 -4 -25 -1 -5 -7 -8 -15 -8 -9 0 -12 -7
-9 -20 3 -12 0 -20 -6 -20 -7 0 -9 5 -5 12 4 7 3 8 -4 4 -6 -4 -9 -13 -6 -21
4 -8 11 -12 17 -8 6 3 7 1 3 -6 -6 -9 -11 -9 -22 0 -12 10 -13 9 -8 -6 5 -13
4 -16 -4 -11 -7 4 -12 1 -12 -8 0 -8 -10 -16 -22 -18 -12 -2 -23 -9 -24 -16
-1 -7 0 -8 3 -2 2 5 14 10 26 9 21 0 20 -1 -3 -11 -36 -16 -51 -18 -44 -6 4 7
2 8 -4 4 -7 -4 -12 -14 -12 -22 0 -8 -5 -12 -10 -9 -6 4 -7 12 -3 18 5 8 2 8
-9 0 -8 -7 -18 -10 -21 -6 -4 3 -9 -2 -13 -11 -3 -9 -10 -16 -16 -16 -5 0 -6
6 -3 13 4 6 -1 3 -9 -7 -15 -18 -16 -18 -16 -2 0 16 -1 16 -16 2 -18 -19 -21
-19 -30 -4 -4 6 -3 8 4 4 6 -3 13 -2 16 3 6 10 -11 10 -29 0 -17 -9 -40 -4
-37 9 3 16 -10 15 -27 0 -11 -11 -11 -9 -1 12 l13 25 -23 -20 -23 -20 11 22
c11 19 9 21 -13 19 -28 -4 -54 21 -50 46 2 11 -2 15 -11 11 -24 -9 -16 31 19
98 37 72 101 125 176 146 60 17 158 9 214 -17z"/>
<path d="M4766 4638 c3 -5 10 -6 15 -3 13 9 11 12 -6 12 -8 0 -12 -4 -9 -9z"/>
<path d="M4346 4541 c-3 -5 1 -14 8 -20 10 -9 16 -9 21 -1 4 6 1 9 -7 8 -7 -2
-12 3 -10 10 2 14 -4 16 -12 3z"/>
<path d="M4456 4472 c-3 -5 1 -9 9 -9 8 0 12 4 9 9 -3 4 -7 8 -9 8 -2 0 -6 -4
-9 -8z"/>
<path d="M6750 4777 c-3 -3 -41 -7 -85 -8 -244 -6 -644 -93 -866 -188 -103
-45 -133 -69 -150 -119 -25 -75 18 -248 103 -416 42 -83 48 -89 245 -264 111
-99 282 -251 379 -338 98 -88 261 -233 363 -323 102 -90 206 -183 231 -207 25
-24 50 -44 55 -44 15 1 104 85 172 162 297 334 472 847 473 1383 0 132 -15
276 -31 285 -14 9 -294 52 -424 65 -84 8 -460 18 -465 12z m43 -434 c-34 -2
-93 -2 -130 0 -37 2 -9 3 62 3 72 0 102 -1 68 -3z m-336 -19 c-3 -3 -12 -4
-19 -1 -8 3 -5 6 6 6 11 1 17 -2 13 -5z m570 0 c-3 -3 -12 -4 -19 -1 -8 3 -5
6 6 6 11 1 17 -2 13 -5z m80 -86 c-3 -8 -6 -5 -6 6 -1 11 2 17 5 13 3 -3 4
-12 1 -19z m-1047 -31 c0 -2 -10 -12 -22 -23 l-23 -19 19 23 c18 21 26 27 26
19z m-43 -94 c-3 -10 -5 -4 -5 12 0 17 2 24 5 18 2 -7 2 -21 0 -30z m27 -79
c3 -8 2 -12 -4 -9 -6 3 -10 10 -10 16 0 14 7 11 14 -7z m1023 -116 c-3 -8 -6
-5 -6 6 -1 11 2 17 5 13 3 -3 4 -12 1 -19z m-942 -18 c10 -11 16 -20 13 -20
-3 0 -13 9 -23 20 -10 11 -16 20 -13 20 3 0 13 -9 23 -20z m39 -36 c3 -8 2
-12 -4 -9 -6 3 -10 10 -10 16 0 14 7 11 14 -7z m106 -101 c0 -8 -9 0 -50 45
l-45 47 48 -45 c26 -24 47 -45 47 -47z m85 -73 c27 -27 47 -50 44 -50 -3 0
-27 23 -54 50 -27 28 -47 50 -44 50 3 0 27 -22 54 -50z m100 -90 c21 -22 37
-40 34 -40 -3 0 -23 18 -44 40 -21 22 -37 40 -34 40 3 0 23 -18 44 -40z m495
0 c-6 -11 -13 -20 -16 -20 -2 0 0 9 6 20 6 11 13 20 16 20 2 0 0 -9 -6 -20z
m-405 -80 c21 -22 37 -40 34 -40 -3 0 -23 18 -44 40 -21 22 -37 40 -34 40 3 0
23 -18 44 -40z m335 -34 c0 -2 -8 -10 -17 -17 -16 -13 -17 -12 -4 4 13 16 21
21 21 13z m-30 -39 c0 -2 -15 -16 -32 -33 l-33 -29 29 33 c28 30 36 37 36 29z
m-175 -47 c21 -22 37 -40 34 -40 -3 0 -23 18 -44 40 -21 22 -37 40 -34 40 3 0
23 -18 44 -40z m70 -58 c-3 -3 -11 0 -18 7 -9 10 -8 11 6 5 10 -3 15 -9 12
-12z"/>
<path d="M5256 4574 c-61 -19 -140 -95 -155 -150 -36 -130 22 -263 136 -311
18 -7 61 -13 96 -13 113 0 195 58 231 163 20 60 20 101 1 158 -43 123 -183
193 -309 153z m119 -35 c44 -12 88 -43 78 -53 -7 -6 -13 -29 -15 -53 -1 -7 -6
-13 -11 -13 -6 0 -8 -3 -4 -6 8 -9 -63 -75 -74 -68 -5 3 -9 0 -9 -6 0 -6 -4
-9 -9 -5 -5 3 -12 1 -16 -4 -3 -6 -15 -7 -28 -2 -12 5 -30 7 -40 5 -9 -1 -15
2 -11 7 3 5 -2 9 -10 9 -9 0 -16 5 -16 10 0 6 -7 10 -15 10 -8 0 -15 5 -15 11
0 5 -4 7 -10 4 -20 -12 -9 42 16 81 29 45 54 64 99 75 43 10 46 10 90 -2z"/>
<path d="M2320 4533 c-260 -17 -538 -85 -738 -179 l-94 -44 6 -37 c3 -21 8
-60 11 -88 29 -247 170 -666 332 -989 109 -218 363 -636 386 -636 15 0 236
149 362 244 265 199 471 380 718 629 204 205 238 250 279 358 27 74 31 97 32
189 1 101 -1 107 -33 168 -85 157 -318 297 -586 351 -167 34 -462 49 -675 34z
m643 -129 c308 -50 497 -206 515 -421 l5 -66 -38 41 c-155 172 -461 295 -835
337 -218 25 -603 24 -775 -2 -22 -3 -37 -3 -34 1 6 7 299 68 382 80 27 4 59 9
70 12 26 5 78 12 167 23 116 14 448 11 543 -5z"/>
<path d="M3802 4441 c-159 -75 -189 -299 -55 -410 124 -103 306 -64 380 82 21
43 24 61 21 117 -5 86 -42 151 -112 195 -64 39 -168 46 -234 16z m188 -39 c18
-11 36 -25 38 -32 3 -7 0 -10 -5 -7 -6 4 -9 -4 -7 -18 1 -14 -4 -32 -13 -40
-8 -9 -10 -15 -3 -15 6 0 1 -10 -10 -22 -12 -13 -22 -21 -23 -18 -2 3 -10 -2
-19 -10 -9 -8 -14 -18 -12 -22 2 -3 -6 -4 -18 0 -16 4 -19 2 -13 -9 8 -12 6
-12 -8 0 -10 8 -17 9 -17 3 0 -7 -10 -8 -29 -2 -16 4 -32 6 -35 2 -3 -3 -6 1
-6 8 0 7 -3 10 -7 7 -3 -4 -12 1 -20 11 -10 11 -12 12 -8 2 4 -8 -2 -5 -13 7
-11 12 -22 19 -26 16 -11 -11 -6 16 10 58 25 62 82 99 153 99 36 0 69 -7 91
-18z"/>
<path d="M4565 3982 c-70 -24 -110 -55 -142 -110 -24 -40 -28 -58 -28 -122 0
-61 5 -83 25 -120 96 -171 344 -166 433 9 61 122 14 267 -105 325 -70 34 -121
39 -183 18z m155 -55 c36 -22 47 -56 21 -65 -11 -4 -11 -6 0 -13 11 -7 11 -9
1 -9 -7 0 -10 -4 -7 -10 3 -5 1 -10 -5 -10 -6 0 -8 -4 -5 -10 3 -5 -2 -10 -11
-10 -10 0 -14 -3 -11 -7 11 -10 -13 -33 -34 -33 -11 0 -19 -4 -19 -8 0 -4 -17
-9 -37 -10 -21 -2 -39 -5 -42 -7 -2 -3 -13 3 -24 12 -15 13 -18 14 -12 3 4 -8
-2 -5 -14 8 -12 12 -27 20 -32 16 -5 -3 -8 0 -7 8 2 7 -3 12 -11 10 -19 -4 -7
54 18 88 52 72 159 94 231 47z"/>
<path d="M4995 3879 c-19 -17 -35 -38 -35 -48 0 -58 158 -302 341 -526 68 -82
300 -368 517 -635 217 -267 405 -495 419 -507 17 -16 36 -23 67 -23 45 0 59 8
155 90 90 76 104 133 49 197 -18 21 -78 85 -134 143 -55 58 -152 160 -215 226
-63 67 -229 242 -369 389 -140 147 -325 342 -410 434 -161 172 -296 291 -330
291 -11 0 -35 -14 -55 -31z"/>
<path d="M3965 3747 c-110 -113 -196 -230 -440 -592 -115 -170 -259 -384 -320
-475 -400 -592 -378 -557 -378 -600 0 -50 25 -79 127 -144 60 -37 82 -46 119
-46 74 0 11 -98 609 955 141 248 284 500 319 560 113 195 178 346 161 372 -12
16 -79 53 -98 53 -11 0 -55 -37 -99 -83z"/>
<path d="M4655 3278 c-70 -38 -109 -104 -278 -463 -115 -247 -125 -269 -192
-440 -117 -300 -118 -303 -118 -376 -1 -56 4 -78 29 -125 33 -66 61 -89 133
-114 46 -15 89 -17 389 -14 185 2 414 6 508 10 171 6 172 6 207 35 70 58 95
153 71 267 -13 63 -36 113 -274 597 -89 182 -175 359 -192 394 -81 178 -200
275 -283 229z"/>
</g>
</svg>
