<svg width="154" height="52" viewBox="0 0 154 52" fill="none" xmlns="http://www.w3.org/2000/svg">
<path d="M153.762 37.8869C153.762 45.3448 147.652 51.4548 140.194 51.4548H13.5679C6.11003 51.4548 0 45.3448 0 37.8869V13.7613C0 6.30342 6.11003 0.193359 13.5679 0.193359H140.194C147.652 0.193359 153.762 6.30342 153.762 13.7613V37.8869Z" fill="#404040"/>
<path d="M58.5246 19.043L57.8746 17.443H54.8546L54.2046 19.043H53.4046L56.0746 12.543H56.6546L59.3246 19.043H58.5246ZM55.1346 16.743H57.5846L56.3546 13.713L55.1346 16.743ZM60.9732 19.043L59.1632 14.443H59.9132L61.3332 18.053L62.7632 14.443H63.5132L61.6832 19.043H60.9732ZM67.9833 14.443H68.7133V19.043H67.9833V18.213C67.6333 18.763 67.0533 19.123 66.2733 19.123C64.9633 19.123 64.0333 18.113 64.0333 16.743C64.0333 15.363 64.9633 14.373 66.2733 14.373C67.0533 14.373 67.6333 14.723 67.9833 15.273V14.443ZM66.3633 18.433C67.3533 18.433 67.9833 17.723 67.9833 16.743C67.9833 15.763 67.3533 15.063 66.3633 15.063C65.3833 15.063 64.7333 15.763 64.7333 16.743C64.7333 17.723 65.3833 18.433 66.3633 18.433ZM70.4043 13.463C70.1843 13.463 69.9643 13.283 69.9643 13.013C69.9643 12.743 70.1843 12.583 70.4043 12.583C70.6243 12.583 70.8443 12.743 70.8443 13.013C70.8443 13.283 70.6243 13.463 70.4043 13.463ZM70.7643 19.043H70.0443V14.443H70.7743L70.7643 19.043ZM72.823 19.043H72.103V12.543H72.823V19.043ZM77.8954 14.443H78.6254V19.043H77.8954V18.213C77.5454 18.763 76.9654 19.123 76.1854 19.123C74.8754 19.123 73.9454 18.113 73.9454 16.743C73.9454 15.363 74.8754 14.373 76.1854 14.373C76.9654 14.373 77.5454 14.723 77.8954 15.273V14.443ZM76.2754 18.433C77.2654 18.433 77.8954 17.723 77.8954 16.743C77.8954 15.763 77.2654 15.063 76.2754 15.063C75.2954 15.063 74.6454 15.763 74.6454 16.743C74.6454 17.723 75.2954 18.433 76.2754 18.433ZM82.3064 14.373C83.6164 14.373 84.5564 15.363 84.5564 16.743C84.5564 18.113 83.6164 19.123 82.3064 19.123C81.5264 19.123 80.9464 18.763 80.5964 18.213V19.043H79.8764V12.543H80.5964V15.273C80.9464 14.723 81.5264 14.373 82.3064 14.373ZM82.2164 18.433C83.1964 18.433 83.8464 17.723 83.8464 16.743C83.8464 15.763 83.1964 15.063 82.2164 15.063C81.2364 15.063 80.5964 15.763 80.5964 16.743C80.5964 17.723 81.2364 18.433 82.2164 18.433ZM86.3875 19.043H85.6675V12.543H86.3875V19.043ZM89.7799 14.363C91.0999 14.363 91.9799 15.373 91.9799 16.743V16.973H88.2099C88.2999 17.893 88.9299 18.503 89.8399 18.503C90.5199 18.503 90.9899 18.193 91.2499 17.803L91.7599 18.173C91.3599 18.763 90.6799 19.133 89.8399 19.133C88.4399 19.133 87.5099 18.113 87.5099 16.743C87.5099 15.373 88.3999 14.363 89.7799 14.363ZM89.7799 14.963C88.8799 14.963 88.3099 15.573 88.2099 16.473H91.3099C91.2099 15.603 90.6399 14.963 89.7799 14.963ZM97.301 19.133C95.921 19.133 94.961 18.113 94.961 16.743C94.961 15.363 95.921 14.363 97.301 14.363C98.681 14.363 99.641 15.363 99.641 16.743C99.641 18.113 98.681 19.133 97.301 19.133ZM97.301 18.433C98.271 18.433 98.911 17.713 98.911 16.743C98.911 15.773 98.271 15.063 97.301 15.063C96.331 15.063 95.681 15.773 95.681 16.743C95.681 17.713 96.331 18.433 97.301 18.433ZM102.955 14.373C103.875 14.373 104.785 14.913 104.785 16.213V19.043H104.065V16.313C104.065 15.433 103.445 15.003 102.765 15.003C102.075 15.003 101.475 15.433 101.475 16.313V19.043H100.755V14.443H101.475V15.063C101.825 14.583 102.385 14.373 102.955 14.373ZM110.22 15.013H109.12V17.843C109.12 18.333 109.42 18.453 109.76 18.453H110.17V19.043H109.5C108.8 19.043 108.39 18.643 108.39 17.943V15.013H107.75V14.443H108.39V13.043H109.12V14.443H110.22V15.013ZM113.414 14.373C114.334 14.373 115.244 14.913 115.244 16.213V19.043H114.524V16.313C114.524 15.433 113.904 15.003 113.224 15.003C112.534 15.003 111.934 15.433 111.934 16.313V19.043H111.214V12.543H111.934V15.063C112.284 14.583 112.844 14.373 113.414 14.373ZM118.637 14.363C119.957 14.363 120.837 15.373 120.837 16.743V16.973H117.067C117.157 17.893 117.787 18.503 118.697 18.503C119.377 18.503 119.847 18.193 120.107 17.803L120.617 18.173C120.217 18.763 119.537 19.133 118.697 19.133C117.297 19.133 116.367 18.113 116.367 16.743C116.367 15.373 117.257 14.363 118.637 14.363ZM118.637 14.963C117.737 14.963 117.167 15.573 117.067 16.473H120.167C120.067 15.603 119.497 14.963 118.637 14.963Z" fill="white"/>
<path d="M60.4718 40.1943L59.3018 37.3143H53.8658L52.6958 40.1943H51.2558L56.0618 28.4943H57.1058L61.9118 40.1943H60.4718ZM54.3698 36.0543H58.7798L56.5658 30.6003L54.3698 36.0543ZM67.8417 31.7883C70.1997 31.7883 71.8917 33.6063 71.8917 36.0723C71.8917 38.5563 70.1997 40.3383 67.8417 40.3383C66.4377 40.3383 65.3937 39.7083 64.7637 38.7003V43.5063H63.4677V31.9143H64.7637V33.4263C65.3937 32.4183 66.4377 31.7883 67.8417 31.7883ZM67.6797 39.0963C69.4437 39.0963 70.6137 37.8363 70.6137 36.0723C70.6137 34.3083 69.4437 33.0303 67.6797 33.0303C65.9157 33.0303 64.7637 34.3083 64.7637 36.0723C64.7637 37.8363 65.9157 39.0963 67.6797 39.0963ZM78.2655 31.7883C80.6235 31.7883 82.3155 33.6063 82.3155 36.0723C82.3155 38.5563 80.6235 40.3383 78.2655 40.3383C76.8615 40.3383 75.8175 39.7083 75.1875 38.7003V43.5063H73.8915V31.9143H75.1875V33.4263C75.8175 32.4183 76.8615 31.7883 78.2655 31.7883ZM78.1035 39.0963C79.8675 39.0963 81.0375 37.8363 81.0375 36.0723C81.0375 34.3083 79.8675 33.0303 78.1035 33.0303C76.3395 33.0303 75.1875 34.3083 75.1875 36.0723C75.1875 37.8363 76.3395 39.0963 78.1035 39.0963ZM87.5588 37.6923L88.6748 36.9543C89.0888 38.0523 90.5288 39.0423 92.4728 39.0423C94.4888 39.0423 95.3348 38.2863 95.3348 36.9363C95.3348 35.4063 93.0488 35.0463 91.9868 34.7403C90.8528 34.4343 87.9728 33.9483 87.9728 31.5363C87.9728 29.3403 89.8448 28.2963 92.3468 28.2963C94.5068 28.2963 96.2348 29.3403 96.6668 30.6183L95.5508 31.2843C95.2268 30.4203 93.8948 29.6463 92.2028 29.6463C90.4568 29.6463 89.5028 30.3303 89.5028 31.4823C89.5028 32.9223 91.5908 33.2283 92.7428 33.5343C93.7868 33.8403 96.8288 34.4523 96.8288 36.8823C96.8288 39.1863 95.1548 40.3923 92.3468 40.3923C89.8268 40.3923 88.1168 39.2223 87.5588 37.6923ZM102.635 32.9403H100.655V38.0343C100.655 38.9163 101.195 39.1323 101.807 39.1323H102.545V40.1943H101.339C100.079 40.1943 99.3414 39.4743 99.3414 38.2143V32.9403H98.1894V31.9143H99.3414V29.3943H100.655V31.9143H102.635V32.9403ZM107.963 40.3563C105.479 40.3563 103.751 38.5203 103.751 36.0543C103.751 33.5703 105.479 31.7703 107.963 31.7703C110.447 31.7703 112.175 33.5703 112.175 36.0543C112.175 38.5203 110.447 40.3563 107.963 40.3563ZM107.963 39.0963C109.709 39.0963 110.861 37.8003 110.861 36.0543C110.861 34.3083 109.709 33.0303 107.963 33.0303C106.217 33.0303 105.047 34.3083 105.047 36.0543C105.047 37.8003 106.217 39.0963 107.963 39.0963ZM115.477 33.4443C116.107 32.3103 117.223 31.8063 118.393 31.7883V33.0303C117.115 33.0483 115.477 33.7143 115.477 35.7303V40.1943H114.181V31.9143H115.477V33.4443ZM123.323 31.7703C125.699 31.7703 127.283 33.5883 127.283 36.0543V36.4683H120.497C120.659 38.1243 121.793 39.2223 123.431 39.2223C124.655 39.2223 125.501 38.6643 125.969 37.9623L126.887 38.6283C126.167 39.6903 124.943 40.3563 123.431 40.3563C120.911 40.3563 119.237 38.5203 119.237 36.0543C119.237 33.5883 120.839 31.7703 123.323 31.7703ZM123.323 32.8503C121.703 32.8503 120.677 33.9483 120.497 35.5683H126.077C125.897 34.0023 124.871 32.8503 123.323 32.8503Z" fill="white"/>
<path d="M26.9334 10.9307H11.0293C9.72641 10.9307 8.67062 11.9864 8.67062 13.2893V40.2005C8.67062 41.5033 9.72641 42.5591 11.0293 42.5591H26.9334C28.2362 42.5591 29.292 41.5033 29.292 40.2005V13.2893C29.292 12.0089 28.2138 10.9307 26.9334 10.9307Z" fill="white"/>
<path d="M28.1464 14.7275H9.79382V36.9214H28.1464V14.7275Z" fill="#404040"/>
<path d="M22.7328 12.3457H15.2076C14.9155 12.3457 14.646 12.5928 14.646 12.9073C14.646 13.2218 14.8931 13.4689 15.2076 13.4689H22.7328C23.0248 13.4689 23.2944 13.2218 23.2944 12.9073C23.2944 12.6153 23.0473 12.3457 22.7328 12.3457Z" fill="#6639A6"/>
<path d="M17.1845 39.5939C17.1845 38.6056 17.9932 37.7744 18.9816 37.7744C19.97 37.7744 20.8011 38.5831 20.8011 39.5939C20.8011 40.5823 19.9925 41.391 18.9816 41.391C17.9932 41.4134 17.1845 40.6048 17.1845 39.5939Z" fill="#6639A6"/>
</svg>
