<svg width="154" height="52" viewBox="0 0 154 52" fill="none" xmlns="http://www.w3.org/2000/svg">
<path d="M153.762 37.8644C153.762 45.3223 147.652 51.4323 140.194 51.4323H13.5679C6.11003 51.4323 0 45.3223 0 37.8644V13.7612C0 6.30335 6.11003 0.193359 13.5679 0.193359H140.194C147.652 0.193359 153.762 6.30335 153.762 13.7612V37.8644Z" fill="#404040"/>
<path d="M54.9269 14.5934H55.6569V19.1934H54.9269V18.3634C54.5769 18.9134 53.9969 19.2734 53.2169 19.2734C51.9069 19.2734 50.9769 18.2634 50.9769 16.8934C50.9769 15.5134 51.9069 14.5234 53.2169 14.5234C53.9969 14.5234 54.5769 14.8734 54.9269 15.4234V14.5934ZM53.3069 18.5834C54.2969 18.5834 54.9269 17.8734 54.9269 16.8934C54.9269 15.9134 54.2969 15.2134 53.3069 15.2134C52.3269 15.2134 51.6769 15.9134 51.6769 16.8934C51.6769 17.8734 52.3269 18.5834 53.3069 18.5834ZM59.1079 14.5234C60.0279 14.5234 60.9379 15.0634 60.9379 16.3634V19.1934H60.2179V16.4634C60.2179 15.5834 59.5979 15.1534 58.9179 15.1534C58.2279 15.1534 57.6279 15.5834 57.6279 16.4634V19.1934H56.9079V14.5934H57.6279V15.2134C57.9779 14.7334 58.5379 14.5234 59.1079 14.5234ZM66.0109 12.6934H66.7409V19.1934H66.0109V18.3634C65.6609 18.9134 65.0809 19.2734 64.3009 19.2734C62.9909 19.2734 62.0609 18.2634 62.0609 16.8934C62.0609 15.5134 62.9909 14.5234 64.3009 14.5234C65.0809 14.5234 65.6609 14.8734 66.0109 15.4234V12.6934ZM64.3909 18.5834C65.3809 18.5834 66.0109 17.8734 66.0109 16.8934C66.0109 15.9134 65.3809 15.2134 64.3909 15.2134C63.4109 15.2134 62.7609 15.9134 62.7609 16.8934C62.7609 17.8734 63.4109 18.5834 64.3909 18.5834ZM68.7119 15.4434C69.0619 14.8134 69.6819 14.5334 70.3319 14.5234V15.2134C69.6219 15.2234 68.7119 15.5934 68.7119 16.7134V19.1934H67.9919V14.5934H68.7119V15.4434ZM73.1411 19.2834C71.7611 19.2834 70.8011 18.2634 70.8011 16.8934C70.8011 15.5134 71.7611 14.5134 73.1411 14.5134C74.5211 14.5134 75.4811 15.5134 75.4811 16.8934C75.4811 18.2634 74.5211 19.2834 73.1411 19.2834ZM73.1411 18.5834C74.1111 18.5834 74.7511 17.8634 74.7511 16.8934C74.7511 15.9234 74.1111 15.2134 73.1411 15.2134C72.1711 15.2134 71.5211 15.9234 71.5211 16.8934C71.5211 17.8634 72.1711 18.5834 73.1411 18.5834ZM77.0354 13.6134C76.8154 13.6134 76.5954 13.4334 76.5954 13.1634C76.5954 12.8934 76.8154 12.7334 77.0354 12.7334C77.2554 12.7334 77.4754 12.8934 77.4754 13.1634C77.4754 13.4334 77.2554 13.6134 77.0354 13.6134ZM77.3954 19.1934H76.6754V14.5934H77.4054L77.3954 19.1934ZM82.5441 12.6934H83.2741V19.1934H82.5441V18.3634C82.1941 18.9134 81.6141 19.2734 80.8341 19.2734C79.5241 19.2734 78.5941 18.2634 78.5941 16.8934C78.5941 15.5134 79.5241 14.5234 80.8341 14.5234C81.6141 14.5234 82.1941 14.8734 82.5441 15.4234V12.6934ZM80.9241 18.5834C81.9141 18.5834 82.5441 17.8734 82.5441 16.8934C82.5441 15.9134 81.9141 15.2134 80.9241 15.2134C79.9441 15.2134 79.2941 15.9134 79.2941 16.8934C79.2941 17.8734 79.9441 18.5834 80.9241 18.5834ZM90.3371 14.5934H91.0671V19.1934H90.3371V18.3634C89.9871 18.9134 89.4071 19.2734 88.6271 19.2734C87.3171 19.2734 86.3871 18.2634 86.3871 16.8934C86.3871 15.5134 87.3171 14.5234 88.6271 14.5234C89.4071 14.5234 89.9871 14.8734 90.3371 15.4234V14.5934ZM88.7171 18.5834C89.7071 18.5834 90.3371 17.8734 90.3371 16.8934C90.3371 15.9134 89.7071 15.2134 88.7171 15.2134C87.7371 15.2134 87.0871 15.9134 87.0871 16.8934C87.0871 17.8734 87.7371 18.5834 88.7171 18.5834ZM94.7481 14.5234C96.0581 14.5234 96.9981 15.5334 96.9981 16.9034C96.9981 18.2834 96.0581 19.2734 94.7481 19.2734C93.9681 19.2734 93.3881 18.9234 93.0381 18.3634V21.0334H92.3181V14.5934H93.0381V15.4334C93.3881 14.8734 93.9681 14.5234 94.7481 14.5234ZM94.6581 18.5834C95.6381 18.5834 96.2881 17.8834 96.2881 16.9034C96.2881 15.9234 95.6381 15.2134 94.6581 15.2134C93.6781 15.2134 93.0381 15.9234 93.0381 16.9034C93.0381 17.8834 93.6781 18.5834 94.6581 18.5834ZM100.539 14.5234C101.849 14.5234 102.789 15.5334 102.789 16.9034C102.789 18.2834 101.849 19.2734 100.539 19.2734C99.7591 19.2734 99.1791 18.9234 98.8291 18.3634V21.0334H98.1091V14.5934H98.8291V15.4334C99.1791 14.8734 99.7591 14.5234 100.539 14.5234ZM100.449 18.5834C101.429 18.5834 102.079 17.8834 102.079 16.9034C102.079 15.9234 101.429 15.2134 100.449 15.2134C99.4691 15.2134 98.8291 15.9234 98.8291 16.9034C98.8291 17.8834 99.4691 18.5834 100.449 18.5834ZM108.102 19.2834C106.722 19.2834 105.762 18.2634 105.762 16.8934C105.762 15.5134 106.722 14.5134 108.102 14.5134C109.482 14.5134 110.442 15.5134 110.442 16.8934C110.442 18.2634 109.482 19.2834 108.102 19.2834ZM108.102 18.5834C109.072 18.5834 109.712 17.8634 109.712 16.8934C109.712 15.9234 109.072 15.2134 108.102 15.2134C107.132 15.2134 106.482 15.9234 106.482 16.8934C106.482 17.8634 107.132 18.5834 108.102 18.5834ZM113.756 14.5234C114.676 14.5234 115.586 15.0634 115.586 16.3634V19.1934H114.866V16.4634C114.866 15.5834 114.246 15.1534 113.566 15.1534C112.876 15.1534 112.276 15.5834 112.276 16.4634V19.1934H111.556V14.5934H112.276V15.2134C112.626 14.7334 113.186 14.5234 113.756 14.5234Z" fill="white"/>
<path d="M60.1246 34.3741C60.0166 37.7041 57.8926 40.0981 54.5086 40.0981C51.0346 40.0981 48.6586 37.5781 48.6586 34.1041C48.6586 30.6301 51.0346 28.1101 54.5086 28.1101C56.5786 28.1101 58.2346 29.0101 59.2426 30.4501L58.1266 31.2421C57.2986 30.0901 56.0026 29.4781 54.5086 29.4781C51.8266 29.4781 50.0086 31.4221 50.0086 34.1041C50.0086 36.7861 51.8266 38.7301 54.5086 38.7301C56.7226 38.7301 58.3606 37.3081 58.5946 35.0581H54.4546V33.7981H60.1246V34.3741ZM66.1756 40.1161C63.6916 40.1161 61.9636 38.2801 61.9636 35.8141C61.9636 33.3301 63.6916 31.5301 66.1756 31.5301C68.6596 31.5301 70.3876 33.3301 70.3876 35.8141C70.3876 38.2801 68.6596 40.1161 66.1756 40.1161ZM66.1756 38.8561C67.9216 38.8561 69.0736 37.5601 69.0736 35.8141C69.0736 34.0681 67.9216 32.7901 66.1756 32.7901C64.4296 32.7901 63.2596 34.0681 63.2596 35.8141C63.2596 37.5601 64.4296 38.8561 66.1756 38.8561ZM76.3533 40.1161C73.8693 40.1161 72.1413 38.2801 72.1413 35.8141C72.1413 33.3301 73.8693 31.5301 76.3533 31.5301C78.8373 31.5301 80.5653 33.3301 80.5653 35.8141C80.5653 38.2801 78.8373 40.1161 76.3533 40.1161ZM76.3533 38.8561C78.0993 38.8561 79.2513 37.5601 79.2513 35.8141C79.2513 34.0681 78.0993 32.7901 76.3533 32.7901C74.6073 32.7901 73.4373 34.0681 73.4373 35.8141C73.4373 37.5601 74.6073 38.8561 76.3533 38.8561ZM89.4291 31.6741H90.7431V39.3421C90.7431 41.7181 89.0511 43.3741 86.3871 43.3741C84.9471 43.3741 83.7231 42.8161 82.9671 41.9161L83.8491 41.1781C84.5151 41.9161 85.4331 42.2401 86.3871 42.2401C87.9171 42.2401 89.4291 41.3221 89.4291 39.3421V38.4601C88.7991 39.4501 87.7551 40.0981 86.3511 40.0981C83.9931 40.0981 82.3191 38.2801 82.3191 35.8141C82.3191 33.3481 83.9931 31.5481 86.3511 31.5481C87.7551 31.5481 88.7991 32.1781 89.4291 33.1681V31.6741ZM86.5131 38.8561C88.2771 38.8561 89.4291 37.5781 89.4291 35.8141C89.4291 34.0501 88.2771 32.7901 86.5131 32.7901C84.7491 32.7901 83.5791 34.0501 83.5791 35.8141C83.5791 37.5781 84.7491 38.8561 86.5131 38.8561ZM94.2909 39.9541H92.9949V28.2541H94.2909V39.9541ZM100.397 31.5301C102.773 31.5301 104.357 33.3481 104.357 35.8141V36.2281H97.5713C97.7333 37.8841 98.8673 38.9821 100.505 38.9821C101.729 38.9821 102.575 38.4241 103.043 37.7221L103.961 38.3881C103.241 39.4501 102.017 40.1161 100.505 40.1161C97.9853 40.1161 96.3113 38.2801 96.3113 35.8141C96.3113 33.3481 97.9133 31.5301 100.397 31.5301ZM100.397 32.6101C98.7773 32.6101 97.7513 33.7081 97.5713 35.3281H103.151C102.971 33.7621 101.945 32.6101 100.397 32.6101ZM115.249 28.2541C117.013 28.2541 118.597 29.6581 118.597 31.8181C118.597 33.9781 117.013 35.3821 115.249 35.3821H111.325V39.9541H109.975V28.2541H115.249ZM115.051 34.0681C116.311 34.0681 117.229 33.0781 117.229 31.8181C117.229 30.5761 116.329 29.5861 115.051 29.5861H111.325V34.0681H115.051ZM121.783 39.9541H120.487V28.2541H121.783V39.9541ZM130.913 31.6741H132.227V39.9541H130.913V38.4601C130.283 39.4501 129.239 40.0981 127.835 40.0981C125.477 40.0981 123.803 38.2801 123.803 35.8141C123.803 33.3301 125.477 31.5481 127.835 31.5481C129.239 31.5481 130.283 32.1781 130.913 33.1681V31.6741ZM127.997 38.8561C129.779 38.8561 130.913 37.5781 130.913 35.8141C130.913 34.0501 129.779 32.7901 127.997 32.7901C126.233 32.7901 125.063 34.0501 125.063 35.8141C125.063 37.5781 126.233 38.8561 127.997 38.8561ZM140.185 31.6741H141.535L136.927 43.2661H135.649L136.945 39.9361L133.705 31.6741H135.055L137.611 38.1541L140.185 31.6741Z" fill="white"/>
<path d="M8.67062 42.3122V9.33594L38.3223 25.3523L8.67062 42.3122Z" fill="#5CA9B3"/>
<path d="M8.67062 9.33594L29.6515 30.3167L38.3223 25.3523L8.67062 9.33594Z" fill="#C8DB9B"/>
<path d="M29.4717 20.5674L8.67059 42.312L38.3223 25.3521L29.4717 20.5674Z" fill="#AC5067"/>
<path d="M29.6517 30.3165L38.3226 25.3521L29.472 20.5674L24.7996 25.4645L29.6517 30.3165Z" fill="#F4A676"/>
</svg>
