<svg width="38" height="38" viewBox="0 0 38 38" fill="none" xmlns="http://www.w3.org/2000/svg">
<rect x="-0.00799561" y="0.193359" width="37.024" height="37.024" rx="10.68" fill="#F6F6F6"/>
<path d="M18.4656 14.6686C16.2545 14.6686 14.4711 16.4521 14.4711 18.6632C14.4711 20.8742 16.2545 22.6577 18.4656 22.6577C20.6767 22.6577 22.4602 20.8742 22.4602 18.6632C22.4602 16.4521 20.6767 14.6686 18.4656 14.6686ZM18.4656 21.2601C17.0368 21.2601 15.8686 20.0955 15.8686 18.6632C15.8686 17.2308 17.0333 16.0662 18.4656 16.0662C19.898 16.0662 21.0626 17.2308 21.0626 18.6632C21.0626 20.0955 19.8945 21.2601 18.4656 21.2601ZM23.5553 14.5052C23.5553 15.0232 23.1381 15.4369 22.6236 15.4369C22.1056 15.4369 21.6919 15.0197 21.6919 14.5052C21.6919 13.9907 22.1091 13.5735 22.6236 13.5735C23.1381 13.5735 23.5553 13.9907 23.5553 14.5052ZM26.201 15.4508C26.1419 14.2027 25.8568 13.0972 24.9425 12.1863C24.0316 11.2755 22.9261 10.9904 21.678 10.9278C20.3917 10.8548 16.5362 10.8548 15.2498 10.9278C14.0052 10.9869 12.8997 11.272 11.9853 12.1828C11.071 13.0937 10.7894 14.1992 10.7268 15.4473C10.6538 16.7337 10.6538 20.5892 10.7268 21.8755C10.7859 23.1236 11.071 24.2291 11.9853 25.14C12.8997 26.0508 14.0017 26.3359 15.2498 26.3985C16.5362 26.4715 20.3917 26.4715 21.678 26.3985C22.9261 26.3394 24.0316 26.0543 24.9425 25.14C25.8533 24.2291 26.1384 23.1236 26.201 21.8755C26.274 20.5892 26.274 16.7371 26.201 15.4508ZM24.5392 23.2557C24.268 23.9371 23.7431 24.4621 23.0582 24.7367C22.0326 25.1435 19.599 25.0496 18.4656 25.0496C17.3323 25.0496 14.8952 25.14 13.8731 24.7367C13.1917 24.4655 12.6667 23.9406 12.3921 23.2557C11.9853 22.2301 12.0792 19.7965 12.0792 18.6632C12.0792 17.5298 11.9888 15.0927 12.3921 14.0706C12.6633 13.3892 13.1882 12.8642 13.8731 12.5896C14.8987 12.1828 17.3323 12.2767 18.4656 12.2767C19.599 12.2767 22.0361 12.1863 23.0582 12.5896C23.7396 12.8608 24.2645 13.3857 24.5392 14.0706C24.946 15.0962 24.8521 17.5298 24.8521 18.6632C24.8521 19.7965 24.946 22.2336 24.5392 23.2557Z" fill="#2A2F2F"/>
</svg>
