<svg width="38" height="38" viewBox="0 0 38 38" fill="none" xmlns="http://www.w3.org/2000/svg">
<rect x="0.976013" y="0.193359" width="37.024" height="37.024" rx="10.68" fill="#F6F6F6"/>
<path d="M15.8389 15.4369V24.4648H13.4276V15.4369H15.8389ZM13.2774 13.084C13.2774 12.7335 13.3998 12.4443 13.6445 12.2162C13.8893 11.9882 14.2175 11.8741 14.6291 11.8741C15.0352 11.8741 15.3606 11.9882 15.6053 12.2162C15.8556 12.4443 15.9808 12.7335 15.9808 13.084C15.9808 13.4344 15.8556 13.7237 15.6053 13.9517C15.3606 14.1798 15.0352 14.2938 14.6291 14.2938C14.2175 14.2938 13.8893 14.1798 13.6445 13.9517C13.3998 13.7237 13.2774 13.4344 13.2774 13.084ZM20.5194 17.3643V24.4648H18.1164V15.4369H20.3693L20.5194 17.3643ZM20.169 19.6338H19.5182C19.5182 18.9663 19.6044 18.3656 19.7769 17.8316C19.9493 17.292 20.1913 16.8331 20.5028 16.4548C20.8143 16.071 21.1842 15.779 21.6125 15.5787C22.0464 15.3729 22.5303 15.27 23.0643 15.27C23.487 15.27 23.8736 15.3312 24.2241 15.4536C24.5745 15.576 24.8749 15.7707 25.1252 16.0377C25.3811 16.3047 25.5758 16.6579 25.7093 17.0973C25.8483 17.5367 25.9179 18.0735 25.9179 18.7077V24.4648H23.4982V18.6993C23.4982 18.2988 23.4425 17.9873 23.3313 17.7648C23.22 17.5423 23.0559 17.3866 22.839 17.2976C22.6276 17.203 22.3662 17.1557 22.0547 17.1557C21.7321 17.1557 21.4512 17.2197 21.212 17.3476C20.9784 17.4756 20.7837 17.6536 20.6279 17.8816C20.4777 18.1041 20.3637 18.3656 20.2858 18.6659C20.2079 18.9663 20.169 19.2889 20.169 19.6338Z" fill="#2A2F2F"/>
</svg>
