<svg width="38" height="38" viewBox="0 0 38 38" fill="none" xmlns="http://www.w3.org/2000/svg">
<rect x="0.984009" y="0.193359" width="37.024" height="37.024" rx="10.68" fill="#F6F6F6"/>
<path d="M28.3464 15.1879C28.3577 15.346 28.3577 15.5041 28.3577 15.6622C28.3577 20.4849 24.6871 26.0418 17.9782 26.0418C15.9113 26.0418 13.9912 25.4432 12.3761 24.4041C12.6698 24.438 12.9521 24.4493 13.2571 24.4493C14.9625 24.4493 16.5325 23.8733 17.7861 22.8907C16.1823 22.8568 14.8383 21.8064 14.3752 20.3607C14.6011 20.3946 14.827 20.4172 15.0642 20.4172C15.3917 20.4172 15.7193 20.372 16.0242 20.2929C14.3527 19.9541 13.0989 18.4858 13.0989 16.7126V16.6675C13.5846 16.9385 14.1493 17.1079 14.7479 17.1305C13.7653 16.4754 13.1215 15.3573 13.1215 14.0923C13.1215 13.4146 13.3022 12.7934 13.6185 12.2513C15.4143 14.465 18.1137 15.9107 21.1405 16.0688C21.0841 15.7978 21.0502 15.5154 21.0502 15.2331C21.0502 13.2226 22.6766 11.585 24.6983 11.585C25.7487 11.585 26.6974 12.0254 27.3638 12.737C28.1882 12.5789 28.9788 12.2739 29.6791 11.856C29.408 12.7031 28.832 13.4147 28.0753 13.8664C28.8095 13.7874 29.521 13.5841 30.1761 13.3017C29.6792 14.0245 29.058 14.6683 28.3464 15.1879Z" fill="#2A2F2F"/>
</svg>
