<svg width="80" height="46" viewBox="0 0 80 46" fill="none" xmlns="http://www.w3.org/2000/svg">
<rect width="80" height="46" rx="8" fill="white"/>
<path fill-rule="evenodd" clip-rule="evenodd" d="M16.0004 21.6599C15.8903 21.9352 15.8352 22.2289 15.7618 22.5225C15.5783 23.4034 15.4315 24.3394 15.2296 25.2203C14.8258 25.2203 14.4037 25.2203 14 25.2203C14.4588 22.2472 15.303 19.3476 15.67 16.1543C16.0738 16.1543 16.4775 16.1543 16.8629 16.1543C16.8079 16.4479 16.7345 16.7232 16.6978 17.0169C16.6978 17.0352 16.6611 17.0536 16.6611 17.0903C17.2116 16.3745 18.0558 15.879 19.3955 16.0258C20.7169 16.1543 21.4326 17.2004 21.4877 18.43C21.6161 20.779 20.3682 22.9079 17.7989 22.7244C16.9547 22.6693 16.3124 22.3573 16.0004 21.6599ZM17.7255 17.2004C16.6427 17.7509 15.5966 20.2835 16.8262 21.3663C17.6337 22.082 18.9 21.6966 19.4322 21.036C20.0378 20.2835 20.5884 18.118 19.6708 17.3472C19.3588 17.0903 18.8633 16.9985 18.4045 17.0536C18.0742 17.0719 17.909 17.1086 17.7255 17.2004Z" fill="#030000"/>
<path fill-rule="evenodd" clip-rule="evenodd" d="M27.1586 22.5961C26.7732 22.5961 26.3878 22.5961 25.984 22.5961C26.0391 22.229 26.1125 21.8803 26.1859 21.5316C25.8372 22.0455 25.2316 22.6328 24.3507 22.7245C23.0844 22.853 21.9282 22.2107 21.8181 21.1646C21.7814 20.8159 21.7998 20.247 22.0934 19.8065C22.8275 18.6503 24.7361 18.5769 26.6264 18.632C27.1953 16.5399 24.1488 16.8518 23.1028 17.5309C23.1578 17.1271 23.2496 16.7417 23.3046 16.338C25.1949 15.7507 27.7458 15.8975 27.8927 17.9346C27.9477 18.7421 27.7091 19.5312 27.5623 20.302C27.4155 21.0545 27.2687 21.7886 27.1586 22.5961ZM23.1578 20.926C23.1945 21.4582 23.7818 21.7519 24.2589 21.7519C25.5619 21.7702 26.1859 20.6324 26.3878 19.5129C24.9196 19.4395 23.0661 19.623 23.1578 20.926Z" fill="#030000"/>
<path fill-rule="evenodd" clip-rule="evenodd" d="M29.9848 16.1724C30.2601 17.8791 30.5904 19.5308 30.8474 21.2743C31.82 19.6042 32.7193 17.8608 33.6736 16.1724C34.1141 16.1724 34.5545 16.1724 35.0133 16.1724C33.8388 18.3012 32.4624 20.6319 31.141 22.8709C30.7373 23.5683 30.3335 24.5042 29.7463 24.963C29.2324 25.3668 28.2414 25.4585 27.4155 25.2934C27.4339 24.9263 27.5623 24.651 27.5807 24.3024C27.7459 24.284 27.9477 24.3941 28.1496 24.3941C29.0489 24.3941 29.5444 23.5683 29.8747 22.9259C29.4893 20.7053 29.0672 18.5031 28.6818 16.2641C28.6451 16.2274 28.6635 16.2091 28.6818 16.1724C29.1223 16.1724 29.5627 16.1724 29.9848 16.1724Z" fill="#030000"/>
<path fill-rule="evenodd" clip-rule="evenodd" d="M35.5453 26.3583C35.27 27.9182 34.9213 29.3864 34.646 30.9463C33.7835 30.9463 32.9209 30.9463 32.04 30.9463C32.4438 29.0377 32.7925 27.1474 33.1779 25.2571C33.5633 23.3852 34.0221 21.5133 34.2423 19.5313C34.9397 19.4762 35.8756 19.4762 36.573 19.5313C36.5547 19.9717 36.4445 20.3388 36.4078 20.7609C37.0869 20.0818 37.821 19.1826 39.3809 19.3294C40.8674 19.4762 41.6933 20.7242 41.8034 22.3024C42.0052 25.0186 40.6839 27.6796 38.2981 27.8631C36.8116 27.9733 36.1142 27.2942 35.5453 26.3583ZM36.5914 22.3024C35.9857 23.165 35.7839 24.8167 36.5547 25.459C37.0318 25.8628 37.9127 25.6609 38.3165 25.3305C38.8303 24.9085 39.1974 24.101 39.179 23.0916C39.1607 22.174 38.7569 21.4032 37.7843 21.5317C37.2153 21.6051 36.8666 21.8987 36.5914 22.3024Z" fill="#009651"/>
<path fill-rule="evenodd" clip-rule="evenodd" d="M48.9423 27.6975C48.2632 27.6792 47.4924 27.7342 46.8685 27.6608C46.9419 27.2938 46.9419 26.835 46.9969 26.4679C46.7951 26.6698 46.6482 26.9634 46.3913 27.202C45.5471 27.9728 43.6568 28.138 42.7209 27.3672C41.7115 26.523 41.8767 24.5043 42.7209 23.6417C43.6935 22.6323 45.5288 22.3754 47.419 22.5773C47.6025 21.8065 47.0887 21.3293 46.4464 21.2376C45.5104 21.1091 44.2625 21.5129 43.7119 21.8432C43.822 21.1825 43.8587 20.4668 43.9872 19.8061C44.6479 19.5675 45.2718 19.384 46.061 19.3473C48.2449 19.2005 49.7497 19.9346 49.8966 21.8065C49.97 22.7975 49.6763 23.8252 49.4561 24.7979C49.2542 25.7522 49.1074 26.7249 48.9423 27.6975ZM46.3179 24.0271C45.5288 24.0455 44.6662 24.3024 44.4827 24.8897C44.3359 25.4035 44.7029 25.8807 45.0883 25.9541C46.2995 26.211 47.1254 25.0181 47.2171 24.0638C46.9419 24.0087 46.5381 24.0271 46.3179 24.0271Z" fill="#009651"/>
<path fill-rule="evenodd" clip-rule="evenodd" d="M56.9441 19.8065C56.8156 20.4672 56.577 21.0178 56.4486 21.6784C55.8062 21.4582 55.0354 21.1279 54.0261 21.238C53.6223 21.293 53.2186 21.4949 53.2186 21.8987C53.2369 22.3942 53.9894 22.5777 54.4482 22.7612C55.0905 23.0365 55.8613 23.4035 56.1733 23.9541C56.7055 24.9084 56.1733 26.3032 55.6044 26.8904C55.1272 27.386 54.228 27.7897 53.3103 27.8631C52.1175 27.9549 50.8695 27.7346 49.8418 27.4594C49.9886 26.7803 50.1538 26.1564 50.3373 25.5324C51.0163 25.8077 51.7871 26.0646 52.8332 25.9728C53.3287 25.9178 53.8793 25.7526 53.8059 25.1653C53.7508 24.6882 53.0351 24.523 52.5029 24.3028C51.5118 23.899 50.7778 23.3852 50.7778 22.0455C50.7778 19.2927 54.595 18.8339 56.9441 19.8065Z" fill="#009651"/>
<path fill-rule="evenodd" clip-rule="evenodd" d="M63.4409 19.8066C63.2941 20.4489 63.0922 21.0545 62.9087 21.6785C62.3031 21.4399 61.514 21.1279 60.5046 21.238C60.1009 21.2747 59.6971 21.4766 59.6971 21.8987C59.7155 22.4126 60.6331 22.6878 61.0552 22.8714C61.9177 23.2384 62.7436 23.6422 62.8537 24.6332C62.9638 25.6058 62.56 26.395 61.9911 26.9272C61.4589 27.441 60.6698 27.7897 59.7889 27.8631C58.5776 27.9549 57.4031 27.7347 56.3203 27.4594C56.4304 26.762 56.6507 26.1931 56.7791 25.5324C57.2746 25.6792 57.7518 25.9178 58.339 25.9729C59.1649 26.0463 60.2844 25.9912 60.266 25.2755C60.2477 24.5047 58.651 24.3395 58.0271 23.844C57.348 23.3118 56.9259 22.0088 57.4581 20.9444C58.339 19.2927 61.3672 18.9257 63.4409 19.8066Z" fill="#009651"/>
<path d="M64.4133 20.6504H64.083L64.1014 20.522H64.9089L64.8905 20.6504H64.5602L64.3766 21.6598H64.2298L64.4133 20.6504Z" fill="#009651"/>
<path d="M65.7713 21.6598L65.8447 21.0542C65.863 20.9441 65.8814 20.7789 65.8998 20.6688C65.8447 20.7789 65.7896 20.9257 65.7162 21.0358L65.3859 21.6598H65.2758L65.184 21.0542C65.1657 20.9257 65.1473 20.7973 65.1473 20.6688C65.129 20.7789 65.0923 20.9441 65.0556 21.0542L64.9087 21.6598H64.7803L65.0739 20.522H65.2574L65.3492 21.1643C65.3675 21.2561 65.3675 21.3662 65.3675 21.4579C65.4042 21.3662 65.4593 21.2744 65.496 21.1827L65.8447 20.522H66.0282L65.8814 21.6598H65.7713Z" fill="#009651"/>
</svg>
